<?xml version="1.0" encoding="UTF-8" standalone="no"?>
<!DOCTYPE svg PUBLIC "-//W3C//DTD SVG 1.1//EN" "http://www.w3.org/Graphics/SVG/1.1/DTD/svg11.dtd">
<svg width="100%" height="100%" viewBox="0 0 43 43" version="1.1" xmlns="http://www.w3.org/2000/svg" xmlns:xlink="http://www.w3.org/1999/xlink" xml:space="preserve" xmlns:serif="http://www.serif.com/" style="fill-rule:evenodd;clip-rule:evenodd;stroke-linejoin:round;stroke-miterlimit:2;">
    <path d="M22.11,42.425L25.842,32.244L21.199,29.503L16.556,32.244L20.287,42.425L22.11,42.425ZM28.607,21.143L26.958,26.791L21.199,28.513L15.507,26.811L12.972,33.593L8.944,33.362L8.713,29.333L15.483,26.803L15.44,26.791L13.791,21.143L13.764,21.143L13.777,21.098L13.764,21.052L13.791,21.052L15.44,15.405L21.199,13.682L26.958,15.405L28.607,21.052L28.633,21.052L28.62,21.098L28.633,21.143L28.607,21.143ZM33.585,33.362L29.557,33.593L27.015,26.792L33.816,29.333L33.585,33.362ZM0,20.231L10.182,16.5L12.922,21.143L10.182,25.786L0,22.055L0,20.231ZM42.523,21.964L32.342,25.695L29.601,21.052L32.342,16.409L42.523,20.14L42.523,21.964ZM13.724,21.097L13.738,21.143L13.711,21.143L13.724,21.097ZM13.738,21.052L13.724,21.097L13.711,21.052L13.738,21.052ZM8.699,8.89L12.727,8.659L15.268,15.46L8.467,12.918L8.699,8.89ZM33.585,8.89L33.816,12.918L27.015,15.46L29.557,8.659L33.585,8.89ZM22.084,0L25.815,10.182L21.172,12.922L16.529,10.182L20.26,0L22.084,0Z" style="fill:white;"/>
</svg>
