<?xml version="1.0" encoding="UTF-8" standalone="no"?>
<!DOCTYPE svg PUBLIC "-//W3C//DTD SVG 1.1//EN" "http://www.w3.org/Graphics/SVG/1.1/DTD/svg11.dtd">
<svg width="100%" height="100%" viewBox="0 0 30 30" version="1.1" xmlns="http://www.w3.org/2000/svg" xmlns:xlink="http://www.w3.org/1999/xlink" xml:space="preserve" xmlns:serif="http://www.serif.com/" style="fill-rule:evenodd;clip-rule:evenodd;stroke-linejoin:round;stroke-miterlimit:2;">
    <g transform="matrix(1.25,0,0,1.36364,-3.75,-5.45455)">
        <path d="M15,4C11.638,4 7.055,4.054 6.129,4.135C5.082,4.756 3.02,6.899 3,7.521L3,8.551C3,9.855 4.218,11 5.324,11C6.653,11 7.762,9.899 7.762,8.592C7.762,9.899 8.829,11 10.158,11C11.487,11 12.523,9.899 12.523,8.592C12.523,9.899 13.659,11 14.988,11L15.014,11C16.343,11 17.479,9.899 17.479,8.592C17.479,9.899 18.514,11 19.842,11C21.171,11 22.24,9.899 22.24,8.592C22.24,9.899 23.347,11 24.676,11C25.781,11 27,9.855 27,8.551L27,7.521C26.98,6.9 24.918,4.756 23.871,4.135C20.617,4.02 18.362,4 15,4ZM12.484,11.637C12.357,11.858 12.2,12.06 12.016,12.238C11.514,12.728 10.826,13.033 10.068,13.033C9.339,13.034 8.638,12.748 8.117,12.238C7.935,12.06 7.798,11.87 7.672,11.648C7.546,11.87 7.369,12.059 7.186,12.238C6.665,12.748 5.963,13.034 5.234,13.033C5.143,13.033 5.05,13.007 4.973,12.98C4.866,14.092 4.842,14.541 4.826,15.316L4.826,15.32C4.824,15.714 4.822,16.038 4.82,16.488C4.841,18.822 4.59,24.053 5.85,25.338C7.803,25.792 11.395,25.999 15,26C18.605,25.999 22.197,25.791 24.15,25.336C25.41,24.051 25.159,18.819 25.18,16.486C25.178,16.036 25.176,15.714 25.174,15.32L25.174,15.316C25.158,14.541 25.091,14.092 24.984,12.98C24.907,13.006 24.812,13.031 24.721,13.031C23.992,13.032 23.291,12.748 22.77,12.238C22.588,12.06 22.412,11.87 22.285,11.648L22.283,11.648C22.156,11.87 22.019,12.06 21.838,12.238C21.317,12.748 20.616,13.033 19.887,13.033C19.129,13.033 18.441,12.729 17.939,12.238C17.756,12.06 17.601,11.858 17.473,11.637C17.347,11.858 17.191,12.06 17.01,12.238C16.489,12.748 15.788,13.033 15.059,13.033C15.033,13.033 15.005,13.032 14.979,13.031C14.953,13.032 14.925,13.033 14.898,13.033C14.169,13.034 13.468,12.748 12.947,12.238C12.765,12.06 12.609,11.858 12.484,11.637ZM10.967,14.645L10.967,14.646C11.679,14.647 12.312,14.647 13.096,15.502C13.712,15.437 14.356,15.403 15,15.404L15.002,15.404C15.646,15.403 16.29,15.437 16.906,15.502C17.69,14.647 18.321,14.647 19.033,14.646L19.035,14.646L19.035,14.645C19.371,14.645 20.717,14.644 21.654,17.277L22.66,20.891C23.406,23.578 22.421,23.643 21.193,23.645C19.371,23.577 18.363,22.255 18.363,20.932C17.354,21.097 16.179,21.18 15.002,21.18C13.825,21.18 12.647,21.097 11.639,20.932C11.639,22.255 10.631,23.577 8.809,23.645C7.58,23.643 6.594,23.578 7.34,20.891L8.348,17.277C9.285,14.644 10.63,14.645 10.967,14.645ZM15,16.633C14.999,16.635 13.375,18.126 13.084,18.656L14.146,18.613L14.146,19.539C14.146,19.582 14.574,19.567 15,19.547C15.427,19.567 15.854,19.582 15.854,19.539L15.854,18.613L16.916,18.656C16.625,18.125 15,16.633 15,16.633Z" style="fill:white;fill-rule:nonzero;"/>
    </g>
</svg>
